HIERARCHY
ROOT Hips
{
  OFFSET 5.84602e-005 68.8428 3.50346
  CHANNELS 6 Xposition Yposition Zposition Zrotation Xrotation Yrotation
  JOINT Spine
  {
    OFFSET 0 8.597 -4.6522
    CHANNELS 3 Zrotation Xrotation Yrotation
    JOINT Spine1
    {
      OFFSET 0 7.8454 0.4098
      CHANNELS 3 Zrotation Xrotation Yrotation
      JOINT Spine2
      {
        OFFSET 0 9.7078 -2.1609
        CHANNELS 3 Zrotation Xrotation Yrotation
        JOINT Neck
        {
          OFFSET 0 21.8761 -0.4549
          CHANNELS 3 Zrotation Xrotation Yrotation
          JOINT Head
          {
            OFFSET 0 12.3537 3.3602
            CHANNELS 3 Zrotation Xrotation Yrotation
            End Site
            {
              OFFSET 0.0001 18.9506 0.5657
            }
          }
        }
        JOINT LeftShoulder
        {
          OFFSET 2.2086 21.1115 7.2329
          CHANNELS 3 Zrotation Xrotation Yrotation
          JOINT LeftArm
          {
            OFFSET 13.1193 3.0282 -4.8998
            CHANNELS 3 Zrotation Xrotation Yrotation
            JOINT LeftForeArm
            {
              OFFSET 27.4081 -0.0973053 -0.2375
              CHANNELS 3 Zrotation Xrotation Yrotation
              JOINT LeftHand
              {
                OFFSET 22.8641 0.0662994 -0.1369
                CHANNELS 3 Zrotation Xrotation Yrotation
                JOINT LeftHandIndex1
                {
                  OFFSET 8.8614 0.775009 2.4612
                  CHANNELS 3 Zrotation Xrotation Yrotation
                  JOINT LeftHandIndex2
                  {
                    OFFSET 3.3146 -0.808304 0.5841
                    CHANNELS 3 Zrotation Xrotation Yrotation
                    JOINT LeftHandIndex3
                    {
                      OFFSET 2.2628 -0.552002 0.3989
                      CHANNELS 3 Zrotation Xrotation Yrotation
                      End Site
                      {
                        OFFSET 1.6102 -0.4807 0.2612
                      }
                    }
                  }
                }
                JOINT LeftHandMiddle1
                {
                  OFFSET 8.9937 0.895004 0.2143
                  CHANNELS 3 Zrotation Xrotation Yrotation
                  JOINT LeftHandMiddle2
                  {
                    OFFSET 4.0984 0.0113983 -0.0242
                    CHANNELS 3 Zrotation Xrotation Yrotation
                    JOINT LeftHandMiddle3
                    {
                      OFFSET 2.2716 0.00689697 -0.0138001
                      CHANNELS 3 Zrotation Xrotation Yrotation
                      End Site
                      {
                        OFFSET 2.0404 -0.1441 0.0027
                      }
                    }
                  }
                }
                JOINT LeftHandRing1
                {
                  OFFSET 8.5234 0.597198 -2.0164
                  CHANNELS 3 Zrotation Xrotation Yrotation
                  JOINT LeftHandRing2
                  {
                    OFFSET 3.7188 -0.188293 -0.2328
                    CHANNELS 3 Zrotation Xrotation Yrotation
                    JOINT LeftHandRing3
                    {
                      OFFSET 2.1191 -0.106598 -0.1332
                      CHANNELS 3 Zrotation Xrotation Yrotation
                      End Site
                      {
                        OFFSET 1.8737 -0.2304 -0.0886
                      }
                    }
                  }
                }
                JOINT LeftHandPinky1
                {
                  OFFSET 7.9094 -0.601089 -3.4825
                  CHANNELS 3 Zrotation Xrotation Yrotation
                  JOINT LeftHandPinky2
                  {
                    OFFSET 2.2874 -0.477005 -0.6314
                    CHANNELS 3 Zrotation Xrotation Yrotation
                    JOINT LeftHandPinky3
                    {
                      OFFSET 1.6774 -0.349396 -0.4633
                      CHANNELS 3 Zrotation Xrotation Yrotation
                      End Site
                      {
                        OFFSET 1.4888 -0.4091 -0.3416
                      }
                    }
                  }
                }
                JOINT LeftHandThumb1
                {
                  OFFSET 1.833 -1.3875 1.3896
                  CHANNELS 3 Zrotation Xrotation Yrotation
                  JOINT LeftHandThumb2
                  {
                    OFFSET 3.4129 -1.121 2.5732
                    CHANNELS 3 Zrotation Xrotation Yrotation
                    JOINT LeftHandThumb3
                    {
                      OFFSET 2.2474 -0.804199 1.6192
                      CHANNELS 3 Zrotation Xrotation Yrotation
                      End Site
                      {
                        OFFSET 1.6527 -0.5689 1.1317
                      }
                    }
                  }
                }
              }
            }
          }
        }
        JOINT RightShoulder
        {
          OFFSET -2.2086 21.1115 7.2329
          CHANNELS 3 Zrotation Xrotation Yrotation
          JOINT RightArm
          {
            OFFSET -13.1216 3.0287 -4.9007
            CHANNELS 3 Zrotation Xrotation Yrotation
            JOINT RightForeArm
            {
              OFFSET -27.4081 -0.0973053 -0.2375
              CHANNELS 3 Zrotation Xrotation Yrotation
              JOINT RightHand
              {
                OFFSET -22.8641 0.0664063 -0.1369
                CHANNELS 3 Zrotation Xrotation Yrotation
                JOINT RightHandIndex1
                {
                  OFFSET -8.8614 0.774994 2.4612
                  CHANNELS 3 Zrotation Xrotation Yrotation
                  JOINT RightHandIndex2
                  {
                    OFFSET -3.3146 -0.808304 0.5841
                    CHANNELS 3 Zrotation Xrotation Yrotation
                    JOINT RightHandIndex3
                    {
                      OFFSET -2.2628 -0.552002 0.3989
                      CHANNELS 3 Zrotation Xrotation Yrotation
                      End Site
                      {
                        OFFSET -1.6102 -0.4807 0.2612
                      }
                    }
                  }
                }
                JOINT RightHandMiddle1
                {
                  OFFSET -8.9937 0.894989 0.2143
                  CHANNELS 3 Zrotation Xrotation Yrotation
                  JOINT RightHandMiddle2
                  {
                    OFFSET -4.0984 0.0113983 -0.0242
                    CHANNELS 3 Zrotation Xrotation Yrotation
                    JOINT RightHandMiddle3
                    {
                      OFFSET -2.2716 0.00691223 -0.0138001
                      CHANNELS 3 Zrotation Xrotation Yrotation
                      End Site
                      {
                        OFFSET -2.0404 -0.1441 0.0027
                      }
                    }
                  }
                }
                JOINT RightHandRing1
                {
                  OFFSET -8.5234 0.597198 -2.0164
                  CHANNELS 3 Zrotation Xrotation Yrotation
                  JOINT RightHandRing2
                  {
                    OFFSET -3.7188 -0.188309 -0.2328
                    CHANNELS 3 Zrotation Xrotation Yrotation
                    JOINT RightHandRing3
                    {
                      OFFSET -2.1191 -0.106598 -0.1332
                      CHANNELS 3 Zrotation Xrotation Yrotation
                      End Site
                      {
                        OFFSET -1.8737 -0.2304 -0.0886
                      }
                    }
                  }
                }
                JOINT RightHandPinky1
                {
                  OFFSET -7.9094 -0.601105 -3.4825
                  CHANNELS 3 Zrotation Xrotation Yrotation
                  JOINT RightHandPinky2
                  {
                    OFFSET -2.2874 -0.477005 -0.6314
                    CHANNELS 3 Zrotation Xrotation Yrotation
                    JOINT RightHandPinky3
                    {
                      OFFSET -1.6774 -0.349396 -0.4633
                      CHANNELS 3 Zrotation Xrotation Yrotation
                      End Site
                      {
                        OFFSET -1.4888 -0.4091 -0.3416
                      }
                    }
                  }
                }
                JOINT RightHandThumb1
                {
                  OFFSET -1.833 -1.38751 1.3896
                  CHANNELS 3 Zrotation Xrotation Yrotation
                  JOINT RightHandThumb2
                  {
                    OFFSET -3.41299 -1.12099 2.5732
                    CHANNELS 3 Zrotation Xrotation Yrotation
                    JOINT RightHandThumb3
                    {
                      OFFSET -2.24741 -0.804108 1.6192
                      CHANNELS 3 Zrotation Xrotation Yrotation
                      End Site
                      {
                        OFFSET -1.6527 -0.5689 1.1317
                      }
                    }
                  }
                }
              }
            }
          }
        }
      }
    }
  }
  JOINT RightUpLeg
  {
    OFFSET -9.1966 3.8861 -0.7581
    CHANNELS 3 Zrotation Xrotation Yrotation
    JOINT RightLeg
    {
      OFFSET -0.7359 -41.0265 0
      CHANNELS 3 Zrotation Xrotation Yrotation
      JOINT RightFoot
      {
        OFFSET 0 -40.2855 0
        CHANNELS 3 Zrotation Xrotation Yrotation
        JOINT RightToeBase
        {
          OFFSET 0 -5.6122 11.7359
          CHANNELS 3 Zrotation Xrotation Yrotation
          End Site
          {
            OFFSET 0 0 7.8731
          }
        }
      }
    }
  }
  JOINT LeftUpLeg
  {
    OFFSET 9.1965 3.8864 -0.7581
    CHANNELS 3 Zrotation Xrotation Yrotation
    JOINT LeftLeg
    {
      OFFSET 0.7359 -41.0268 0
      CHANNELS 3 Zrotation Xrotation Yrotation
      JOINT LeftFoot
      {
        OFFSET 0 -40.2855 0
        CHANNELS 3 Zrotation Xrotation Yrotation
        JOINT LeftToeBase
        {
          OFFSET 0 -5.6122 11.7359
          CHANNELS 3 Zrotation Xrotation Yrotation
          End Site
          {
            OFFSET 0 0 7.8731
          }
        }
      }
    }
  }
}
MOTION
Frames:	4
Frame Time:	0.0333333
39.7391 -3.9236 6.31145 -0 -25.0011 -0 -0.0192041 -1.04722 -0.128893 -0.0407751 -2.0944 -0.258201 -0.0407751 -2.0944 -0.258201 10.6441 19.945 9.32883 5.39858e-007 12.3713 -1.44222e-006 -11.7793 6.81654 -3.05637 -65.6061 -10.8136 -42.349 14.6379 31.0135 -19.2924 -54.3054 9.90114 3.6263 -8.34101e-007 7.10923e-007 6.60121e-007 1.39017e-006 -1.18487e-006 -1.1002e-006 -6.36111e-015 0 -2.38542e-015 -8.34101e-007 7.10923e-007 6.60121e-007 -0.0145643 -9.30125e-005 1.47672e-006 -3.18055e-015 -2.38542e-015 -6.36111e-015 -8.34101e-007 7.10923e-007 6.60121e-007 -0.0187111 -0.00116579 5.36772e-005 3.18055e-015 -5.56597e-015 -3.97569e-015 -8.34101e-007 7.10923e-007 6.60121e-007 -0.0122803 -0.0032526 0.000677586 -6.36111e-015 -3.97569e-015 -2.38542e-015 -8.34101e-007 7.10923e-007 6.60121e-007 1.39017e-006 -1.18487e-006 -1.1002e-006 -6.36111e-015 0 -2.38542e-015 11.9313 6.69054 3.40853 65.2104 -11.0781 41.9936 -15.0193 30.8447 19.7689 54.6406 9.89303 -3.97147 2.75307e-007 2.40082e-007 -2.203e-007 3.18055e-015 -5.56597e-015 4.77083e-015 5.50615e-007 4.80165e-007 -4.40601e-007 2.75307e-007 2.40082e-007 -2.203e-007 0.0149702 -8.8627e-005 -6.20897e-006 5.5061e-007 4.80107e-007 -4.40664e-007 2.75307e-007 2.40082e-007 -2.203e-007 0.0189547 -0.00118845 -6.48434e-005 5.50604e-007 4.80092e-007 -4.40686e-007 2.75307e-007 2.40082e-007 -2.203e-007 0.0123502 -0.00327013 -0.000675568 5.50596e-007 4.80121e-007 -4.40668e-007 2.75307e-007 2.40082e-007 -2.203e-007 3.18055e-015 -5.56597e-015 4.77083e-015 5.50615e-007 4.80165e-007 -4.40601e-007 -52.6328 -50.9398 -122.028 1.80792 50.7413 -2.89648 -3.54033 14.7306 -6.53749 -9.01065e-007 -1.86948e-006 -2.36389e-006 52.6183 -50.9489 121.992 -1.84813 50.7491 2.90395 3.53931 14.7373 6.54457 3.18055e-015 -6.36111e-015 -0 
39.7391 -3.9236 6.34299 -0 -25.0011 -0 -0.0188904 -1.11812 -0.128967 -0.0403099 -2.23608 -0.258377 -0.0403099 -2.23608 -0.258377 10.6078 19.4025 9.43687 1.56352e-006 11.8298 2.26722e-006 -11.843 7.08327 -2.83105 -65.6702 -10.7339 -42.3222 14.7267 30.9801 -19.4397 -54.4022 9.93845 3.77421 -2.7804e-007 2.3697e-007 2.20037e-007 -5.56081e-007 4.7394e-007 4.40074e-007 -8.34121e-007 7.1091e-007 6.60112e-007 -2.7804e-007 2.3697e-007 2.20037e-007 -0.0146493 -8.60612e-005 -1.70263e-006 -1.08026e-006 -2.81631e-007 1.23593e-006 -2.7804e-007 2.3697e-007 2.20037e-007 -0.0187658 -0.00117768 5.91374e-005 -8.34105e-007 7.10803e-007 6.60237e-007 -2.7804e-007 2.3697e-007 2.20037e-007 -0.0123152 -0.00326425 0.000681647 -5.87713e-007 1.70296e-006 8.45306e-008 -2.7804e-007 2.3697e-007 2.20037e-007 -5.56081e-007 4.7394e-007 4.40074e-007 -8.34121e-007 7.1091e-007 6.60112e-007 11.9903 6.95173 3.17864 65.2755 -10.9964 41.967 -15.1101 30.8093 19.9183 54.7433 9.93317 -4.12513 -3.30879e-007 9.01142e-007 5.2314e-007 -2.75315e-007 -2.40078e-007 2.20297e-007 6.36111e-015 -4.77083e-015 2.38542e-015 -3.30879e-007 9.01142e-007 5.2314e-007 0.0150211 -9.47133e-005 -1.42702e-006 -9.93129e-032 -7.95139e-016 -7.15625e-015 -3.30879e-007 9.01142e-007 5.2314e-007 0.0190119 -0.00119314 -5.81955e-005 6.36111e-015 -7.95139e-016 -7.95139e-016 -3.30879e-007 9.01142e-007 5.2314e-007 0.0122144 -0.00323457 -0.000668129 -3.18055e-015 -3.18055e-015 1.59028e-015 -3.30879e-007 9.01142e-007 5.2314e-007 -2.75315e-007 -2.40078e-007 2.20297e-007 6.36111e-015 -4.77083e-015 2.38542e-015 -52.6328 -50.9398 -122.028 1.80795 50.7414 -2.89653 -3.54035 14.7305 -6.53748 -1.25435e-005 3.64243e-006 3.59704e-007 52.6183 -50.9489 121.992 -1.84814 50.7491 2.90393 3.53932 14.7373 6.54456 -1.32856e-006 -2.36458e-006 -1.86939e-006 
39.7391 -3.9236 6.37453 -0 -25.0011 -0 -0.0185768 -1.1889 -0.129042 -0.0398455 -2.37777 -0.258554 -0.0398454 -2.37776 -0.258554 10.5726 18.8594 9.54439 2.80156e-006 11.2875 2.95144e-006 -11.9077 7.34979 -2.60529 -65.7344 -10.6542 -42.2954 14.8154 30.9464 -19.5868 -54.4992 9.97552 3.92214 -3.18055e-015 -3.18055e-015 -3.97569e-015 -2.78049e-007 2.36963e-007 2.20036e-007 -6.36111e-015 -1.11319e-014 -4.77083e-015 -3.18055e-015 -3.18055e-015 -3.97569e-015 -0.0146276 -9.20204e-005 -9.99117e-007 -2.46305e-007 -9.92388e-007 5.76196e-007 -3.18055e-015 -3.18055e-015 -3.97569e-015 -0.0187187 -0.00117698 6.41848e-005 -2.22639e-014 -5.56597e-015 -8.74653e-015 -3.18055e-015 -3.18055e-015 -3.97569e-015 -0.0123145 -0.00326519 0.000681333 -3.18055e-015 -7.95139e-016 6.36111e-015 -3.18055e-015 -3.18055e-015 -3.97569e-015 -2.78049e-007 2.36963e-007 2.20036e-007 -6.36111e-015 -1.11319e-014 -4.77083e-015 12.0505 7.21274 2.94836 65.3406 -10.9148 41.9403 -15.2008 30.7737 20.0676 54.846 9.97304 -4.2789 3.31043e-031 4.77083e-015 -3.97569e-015 6.36111e-015 -7.95139e-016 -0 -1.76556e-031 -3.18055e-015 -3.18055e-015 3.31043e-031 4.77083e-015 -3.97569e-015 0.015037 -9.19893e-005 -3.65741e-006 -3.18055e-015 -7.95139e-016 1.59028e-015 3.31043e-031 4.77083e-015 -3.97569e-015 0.0189916 -0.00119038 -6.32258e-005 -3.31043e-032 2.38542e-015 7.95139e-016 3.31043e-031 4.77083e-015 -3.97569e-015 0.0122847 -0.0032542 -0.000686846 3.18055e-015 -1.59028e-015 7.95139e-016 3.31043e-031 4.77083e-015 -3.97569e-015 6.36111e-015 -7.95139e-016 -0 -1.76556e-031 -3.18055e-015 -3.18055e-015 -52.6328 -50.9398 -122.028 1.80796 50.7413 -2.89652 -3.54033 14.7306 -6.53749 1.32968e-006 -2.36389e-006 1.86948e-006 52.6183 -50.9489 121.992 -1.84812 50.7491 2.90392 3.53933 14.7373 6.54456 1.80214e-006 -3.73877e-006 4.72917e-006 
39.7391 -3.9236 6.40607 -0 -25.0011 -0 -0.0182637 -1.25978 -0.129118 -0.039382 -2.51945 -0.258731 -0.039382 -2.51944 -0.258732 10.5386 18.3155 9.65135 -6.71979e-007 10.7443 -1.47313e-006 -11.9736 7.61612 -2.37908 -65.7985 -10.5746 -42.2685 14.9039 30.9126 -19.7339 -54.5963 10.0123 4.07018 5.56117e-007 -4.73907e-007 -4.40069e-007 8.04051e-007 5.18345e-007 -1.01696e-006 -5.56117e-007 4.73907e-007 4.4007e-007 5.56117e-007 -4.73907e-007 -4.40069e-007 -0.0145838 -8.74523e-005 -4.22922e-006 -5.56112e-007 4.73851e-007 4.4013e-007 5.56117e-007 -4.73907e-007 -4.40069e-007 -0.018711 -0.00117173 5.76126e-005 -5.56106e-007 4.73836e-007 4.40153e-007 5.56117e-007 -4.73907e-007 -4.40069e-007 -0.0123407 -0.0032766 0.000692269 -5.56097e-007 4.73864e-007 4.40136e-007 5.56117e-007 -4.73907e-007 -4.40069e-007 8.04051e-007 5.18345e-007 -1.01696e-006 -5.56117e-007 4.73907e-007 4.4007e-007 12.1117 7.47357 2.71767 65.4057 -10.8333 41.9136 -15.2913 30.7378 20.2168 54.9489 10.0127 -4.43272 -1.92733e-006 -1.68044e-006 1.54205e-006 -1.92733e-006 -1.68044e-006 1.54205e-006 -1.92733e-006 -1.68044e-006 1.54205e-006 -1.92733e-006 -1.68044e-006 1.54205e-006 0.014997 -9.84869e-005 -6.72293e-006 -1.92732e-006 -1.68024e-006 1.54227e-006 -1.92733e-006 -1.68044e-006 1.54205e-006 0.0189573 -0.00119888 -5.67181e-005 -1.9273e-006 -1.68018e-006 1.54235e-006 -1.92733e-006 -1.68044e-006 1.54205e-006 0.0122672 -0.00325059 -0.000676144 -1.92727e-006 -1.68029e-006 1.54228e-006 -1.92733e-006 -1.68044e-006 1.54205e-006 -1.92733e-006 -1.68044e-006 1.54205e-006 -1.92733e-006 -1.68044e-006 1.54205e-006 -52.6328 -50.9399 -122.028 1.80791 50.7413 -2.89649 -3.54034 14.7306 -6.53749 -1.80213e-006 -3.73896e-006 -4.72777e-006 52.6183 -50.9489 121.992 -1.84813 50.7491 2.90391 3.53935 14.7373 6.54457 -3.18055e-015 -3.18055e-015 1.59028e-015 
